<svg viewBox="0 0 56 56" fill="none" xmlns="http://www.w3.org/2000/svg" width="200" height="200">
  <path d="M28 3L5 12V28C5 40.5 15 50.5 28 54C41 50.5 51 40.5 51 28V12L28 3Z" fill="#C49A3C"/>
  <path d="M28 7L9 15V28C9 38.8 17.5 47.5 28 50.5C38.5 47.5 47 38.8 47 28V15L28 7Z" fill="#DDB96A"/>
  <rect x="18" y="20" width="20" height="18" rx="2" fill="none" stroke="rgba(27,42,74,0.9)" stroke-width="1.5"/>
  <line x1="18" y1="25" x2="38" y2="25" stroke="#1B2A4A" stroke-width="1.5"/>
  <line x1="23" y1="19" x2="23" y2="23" stroke="#1B2A4A" stroke-width="1.5" stroke-linecap="round"/>
  <line x1="33" y1="19" x2="33" y2="23" stroke="#1B2A4A" stroke-width="1.5" stroke-linecap="round"/>
  <path d="M22 31 Q24 28 28 28 Q32 28 34 31" stroke="#1B2A4A" stroke-width="1.5" fill="none" stroke-linecap="round"/>
  <polyline points="34,29 34,31 32,31" stroke="#1B2A4A" stroke-width="1.5" stroke-linecap="round" stroke-linejoin="round"/>
</svg>
