<!-- COMPACT LOGO · DARK TEXT · No tagline (for light nav bars) -->
<svg viewBox="0 0 280 46" fill="none" xmlns="http://www.w3.org/2000/svg" width="280" height="46">
  <path d="M20 2L4 8V20C4 29 11 36.5 20 39C29 36.5 36 29 36 20V8L20 2Z" fill="#1B2A4A"/>
  <path d="M20 5L6 11V20C6 28 12.5 34.5 20 37C27.5 34.5 34 28 34 20V11L20 5Z" fill="#243560"/>
  <rect x="12" y="14" width="16" height="14" rx="1.5" fill="none" stroke="#F0E8D8" stroke-width="1.3"/>
  <line x1="12" y1="18.5" x2="28" y2="18.5" stroke="#C49A3C" stroke-width="1.3"/>
  <line x1="16" y1="13" x2="16" y2="16.5" stroke="#F0E8D8" stroke-width="1.3" stroke-linecap="round"/>
  <line x1="24" y1="13" x2="24" y2="16.5" stroke="#F0E8D8" stroke-width="1.3" stroke-linecap="round"/>
  <path d="M15 23.5 Q17 21 20 21 Q23 21 25 23.5" stroke="#C49A3C" stroke-width="1.3" fill="none" stroke-linecap="round"/>
  <polyline points="25,22 25,23.5 23.5,23.5" stroke="#C49A3C" stroke-width="1.3" stroke-linecap="round" stroke-linejoin="round"/>
  <circle cx="17" cy="9" r="0.8" fill="#C49A3C" opacity="0.6"/>
  <circle cx="20" cy="7.5" r="1" fill="#C49A3C"/>
  <circle cx="23" cy="9" r="0.8" fill="#C49A3C" opacity="0.6"/>
  <text x="46" y="10" font-family="Georgia, 'Times New Roman', serif" font-size="8.5" fill="#C49A3C" letter-spacing="3">WAKE COUNTY, NC</text>
  <text x="44" y="36" font-family="Georgia, 'Times New Roman', serif" font-size="24" fill="#0F1C33" letter-spacing="-0.3" font-weight="900">Reset My <tspan fill="#C49A3C">Courtdate</tspan></text>
</svg>
